/* XPM */
static char *_614434450756[] = {
/* columns rows colors chars-per-pixel */
"64 64 47 1 ",
"  c #9E0000",
". c #9F0900",
"X c #A00700",
"o c #A10C00",
"O c #A31300",
"+ c #A61B00",
"@ c #A72000",
"# c #A92400",
"$ c #AC2C00",
"% c #AE3300",
"& c #B03600",
"* c #B13B00",
"= c #B44400",
"- c #B64B00",
"; c #B84D00",
": c #BB5500",
"> c #BD5C00",
", c #BF6100",
"< c #C06500",
"1 c #C46B00",
"2 c #C67500",
"3 c #C97700",
"4 c #CA7D00",
"5 c #CD8300",
"6 c #CE8900",
"7 c #D28E00",
"8 c #D49400",
"9 c #D69B00",
"0 c #D99F00",
"q c #D7A100",
"w c #D9A300",
"e c #DDAC00",
"r c #DFB100",
"t c #E1B600",
"y c #E3BB00",
"u c #E6C300",
"i c #E9C600",
"p c #EACB00",
"a c #EDD200",
"s c #EFDB00",
"d c #F0D700",
"f c #F2DD00",
"g c #F5E300",
"h c #F7E800",
"j c #F9EC00",
"k c #FFF700",
"l c #FFFA00",
/* pixels */
"                                         X         X            ",
"      X        X                                     X      X   ",
"                        X      O362o                            ",
"                               #fld#XX                          ",
"                               o=rkuy9o  X        X             ",
"                                 4glls*$+X                      ",
"    X                        X   O-jkkgjrX                      ",
"           X                      @wdklluX                     X",
"      X                            .qlllu.      X               ",
"                     %9q1.          :,2agq92.                   ",
"                    X>lly+OOO+O+OO    .elllr+Oo         X    X  ",
"X         X        .8gkkjaaapapaa,    .ellljaa6        X        ",
"             X    O=ulkkkllllllll5    .rllklllq                 ",
"                  *gkkkkkkkkkkkkl5    .rllkkllq           X     ",
"        X        ;9kklkkkkkkkklje-    .,99flklp2+               ",
"                .wlkkkklkkkklllf@        .ulkklh&               ",
"               #eglkkkkkkkkkklr-.        .ulkkkki1              ",
"              O;jkkkkkkkkkkkkh5          .ejkkkklw+.            ",
"              5hkkkkkkkkkkklj;O          .O2kkkkljp#            ",
"  X         o:rlkkkkkkklkklge@.            >kkkkkkg#            ",
"            #fkkkkkkkkkkkklq.              >lkkkklf#XX          ",
"     X     -wjkkkkkkkkklkkla6+             $5flkklg#            ",
"X          4llkklkkkkkkkkkklj=.             Oplkklf#      X     ",
"           5llkkkkkkkllkkkkkks2             Oplkklf#            ",
"           1skkkkkkkljajlllklle%.           Oplkklf#            ",
"           X*gllkkkklu$ullkkkkka#           Oplkklg#       X    ",
"            +70ekklku2O2ukkkkklh6*          Opkkkkg#            ",
"               %gkkk>   >kklkkkkl5.         Oplkklf#            ",
"      X        O>ug,$   @,glllklla8O        Oplkklf#           X",
"                 8yO    .Orjklkkkls*.       Oplkklf#            ",
"                 +#.     .@6lkkkklkf,       Oilkklg#            ",
"X              X           ;ukkkkkkl9=.    @>alkklf#    X       ",
"X                           $fllkkkkkiO    >jllkklg#            ",
"                            .,ulkkkllg8%   >klkklu2O            ",
"                            . 2lklkkkkl1.  >kkkkl8              ",
"       X                      $,glkkkkks8. >kkkkl8              ",
"                               +uhkkkkklp*.>kkkkl6              ",
"                               .O9lkkkklkg=>kkkkl8              ",
"                                 ,ykkkkkkk89kkkkl6              ",
"                       .          %hklkkkkllkkkkl8              ",
"                     &we4.        O,ullkkkkkkklkl7              ",
"X                 .+O,klr@.        .9jlkklkkkkkkj6           X  ",
"     X            %pafllja&         @,jllkkkkklj>+              ",
"                 $2klkkllj2==o       =jlkkkkkklg%    X          ",
"  X            . 9lklkklklkjg$       =jlkkkkkklj%               ",
"               O4plklkkkkkkkk956555559jkkkkkklp6+               ",
"              .=hlkkkkkkkkkkkkllllllllkkkkkkklw.                ",
"              ,pjlkkkklkkkkkkkkllklkkkkkkkklklge#   X         X ",
"              8lkkkkljfkkkkkkkkkkkklkkkkkkkkkklh:O              ",
"              6lkkkklp%ulkkkkkkkkkkkklkkklkkkkkkj5              ",
"           %,,rlkkkkp5O5pkkkkkkkkkkkkkkkkkkkkkkklr:O            ",
"           4llllkkkl,   ,llkklkkkkkkkkkkkkkkkkkkllf#            ",
"X        O5plklkklf4#   #4flkkkkkkkkkklkkkklklkkllje-          X",
"        .$skkkkkklpO     Oukkkkllkkkkkkkkkkkjjkkklkl6O.         ",
"        >akkkkkkklpO     .#6llllklkkkklllllu*%6lkkkkgrO         ",
"      X 1lklkkkklgwO       >ppppkkkkkkkdipp7. >akkkkls+  X      ",
"        1lkkkklkl4.        XOOo&gllllll1oOOo  .#slkkld+         ",
"        1lkkkkkj0=             O6888888*       O4ilkp4o         ",
"        1kkkkkka+                                4ll4         X ",
"        #>:::::-X                                $:>$           ",
"                                                                ",
"                                                                ",
"                  X       X                                     ",
"                                                          X     "
};
