/* XPM */
static char *_80cfcc2ff564616b927b13ed6e7ba93d9SZYgH6lGKFx6qq[] = {
/* columns rows colors chars-per-pixel */
"64 64 221 2 ",
"   c #000000",
".  c #0C0203",
"X  c #070A07",
"o  c #0A0A06",
"O  c #060409",
"+  c #0A0509",
"@  c #060B0A",
"#  c #0A0B0B",
"$  c #120204",
"%  c #1C0204",
"&  c #140B07",
"*  c #160608",
"=  c #1D0608",
"-  c #130C0B",
";  c #1A0B0B",
":  c #15120D",
">  c #1B130E",
",  c #1B180F",
"<  c #090910",
"1  c #150D11",
"2  c #161312",
"3  c #1B1511",
"4  c #1B1717",
"5  c #210204",
"6  c #21050A",
"7  c #230B0B",
"8  c #2B0C0B",
"9  c #350507",
"0  c #3B0203",
"q  c #3D090B",
"w  c #21140E",
"e  c #351B08",
"r  c #231614",
"t  c #241A14",
"y  c #261B17",
"u  c #3F220F",
"i  c #2B2419",
"p  c #382619",
"a  c #352A24",
"s  c #3C3523",
"d  c #323F35",
"f  c #440507",
"g  c #4D0105",
"h  c #45050A",
"j  c #4F0108",
"k  c #490C08",
"l  c #4D0C0C",
"z  c #510107",
"x  c #520C07",
"c  c #520109",
"v  c #59010C",
"b  c #540D0B",
"n  c #580F0A",
"m  c #4B110C",
"M  c #421908",
"N  c #52110C",
"B  c #4C0313",
"V  c #560811",
"C  c #4D1917",
"Z  c #571A17",
"A  c #521C14",
"S  c #42230B",
"D  c #45260B",
"F  c #4D2A0F",
"G  c #432613",
"H  c #4D2D13",
"J  c #452718",
"K  c #562513",
"L  c #4C331C",
"P  c #503014",
"I  c #452B23",
"U  c #48332A",
"Y  c #553229",
"T  c #394B2F",
"R  c #34512F",
"E  c #3A512D",
"W  c #3A4433",
"Q  c #384734",
"!  c #374E33",
"~  c #3A4C34",
"^  c #375332",
"/  c #3A5233",
"(  c #3B5338",
")  c #5D4F1A",
"_  c #49561D",
"`  c #49581A",
"'  c #674C16",
"]  c #7C601A",
"[  c #4B452B",
"{  c #494B28",
"}  c #564827",
"|  c #475527",
" . c #4A5423",
".. c #424932",
"X. c #405134",
"o. c #545E35",
"O. c #595E36",
"+. c #555E38",
"@. c #59583B",
"#. c #654D3E",
"$. c #764339",
"%. c #635731",
"&. c #556037",
"*. c #743F41",
"=. c #3F5445",
"-. c #444C44",
";. c #494B43",
":. c #474E4A",
">. c #574946",
",. c #5C4E45",
"<. c #465246",
"1. c #4B5345",
"2. c #4C5A45",
"3. c #465449",
"4. c #4A544A",
"5. c #465A4B",
"6. c #4A584B",
"7. c #545646",
"8. c #535C43",
"9. c #4D5951",
"0. c #644B44",
"q. c #694843",
"w. c #685141",
"e. c #715A49",
"r. c #7B634F",
"t. c #9E170D",
"y. c #950B1F",
"u. c #961717",
"i. c #9B1213",
"p. c #92181A",
"a. c #AE0708",
"s. c #AE0C0C",
"d. c #B50A09",
"f. c #B30C0D",
"g. c #A51B0D",
"h. c #AC1A0C",
"j. c #B91307",
"k. c #A40E16",
"l. c #AA0C14",
"z. c #B90611",
"x. c #B20B12",
"c. c #A21313",
"v. c #AC1414",
"b. c #AA1914",
"n. c #A51918",
"m. c #BA1B12",
"M. c #A7210A",
"N. c #B6240A",
"B. c #BE2011",
"V. c #CC0106",
"C. c #CC020A",
"Z. c #C60F0A",
"A. c #D20004",
"S. c #C21306",
"D. c #C21309",
"F. c #C8100A",
"G. c #C01D12",
"H. c #C32308",
"J. c #885B1C",
"K. c #BC9D1F",
"L. c #BDA414",
"P. c #BCA41A",
"I. c #AE9C29",
"U. c #BD9E23",
"Y. c #B39B29",
"T. c #BD9E2A",
"R. c #AD9530",
"E. c #B29632",
"W. c #BBA227",
"Q. c #B2A032",
"!. c #DD990F",
"~. c #D68D1E",
"^. c #DB8D1B",
"/. c #DD9615",
"(. c #D49C14",
"). c #D99814",
"_. c #DD961A",
"`. c #D99919",
"'. c #E5881F",
"]. c #E1951F",
"[. c #CFAB03",
"{. c #D5A40B",
"}. c #D0A90A",
"|. c #C2A315",
" X c #C2A51A",
".X c #DB8A23",
"XX c #C59526",
"oX c #E28527",
"OX c #C0A623",
"+X c #BD9B7E",
"@X c #B6B77E",
"#X c #C09D7F",
"$X c #C3BE7C",
"%X c #C7C672",
"&X c #AD9986",
"*X c #B59687",
"=X c #B39882",
"-X c #BB9B82",
";X c #BF9F89",
":X c #BEA18B",
">X c #B4B184",
",X c #C29983",
"<X c #C09F8B",
"1X c #CA9E89",
"2X c #C5A387",
"3X c #C9A486",
"4X c #C3A38B",
"5X c #CAA58A",
"6X c #CDAA8D",
"7X c #D1AD8D",
"8X c #C2A391",
"9X c #C8A191",
"0X c #CFAC93",
"qX c #D2AD92",
"wX c #CEB399",
"eX c #D3B093",
"rX c #D1B199",
"tX c #EDEBE9",
"yX c #F1EDE7",
"uX c #F5F3ED",
"iX c #F9F9F5",
/* pixels */
"                                                          r V z g N t                                                           ",
"                                                        - I V z z N J -                                                         ",
"                                                      ; C n c v c v b Z :                                                       ",
"                                                3 4 2 p M 0 h h k B 0 m L p y ,                                                 ",
"                                              2 3 - - & . . $ . . $ $ $ ; ; & w :                                               ",
"                            3 3 2 4 , 4 , 2 3 s -   O . o . % 5 5 * . + #     : s , , , 3 > > 2 3 t                             ",
"                          4 3 - - - - - - # # 2 -.4.:.3.3.#.i.a.d.k.>.4.:.1.3.-.: & & - - - - - - t >                           ",
"                        t a - O O   O O O O O # 3.6.9.7.0.$.h.j.S.h.$.0.7.6.9.3.@ O   O O O O O   - p i                         ",
"                      3 3 # ;.6.3.3.3.:.3.3.3.3.5.5.5.#.p.v.^._.`.~.v.p.@.3.5.5.<.3.3.<.<.3.3.3.5.;.- w ,                       ",
"                      3 2 - ;.4.,.0.0.0.,.,.0.0.#.q.q.$.b.G.^.!.)._.G.b.$.#.q.q.0.0.0.0.w.q.0.0.1.;.# 3 >                       ",
"                        1 a - 5 u.v.z.x.x.f.s.s.s.s.a.h.^.^.m.j.j.B..X.Xh.d.d.d.s.s.f.f.d.f.l.u.5 & a >                         ",
"                          2 4 8 u.x.C.A.V.V.F.D.S.j.S.N.(.(.m.j.j.N.(.`.N.F.j.D.D.D.V.V.V.C.x.p.8 , :                           ",
"                            2 I 8 0 z.C.V.Z.'.]./././.).{.{.)._.).).{.{./././._.].'.Z.V.V.f.0 8 p >                             ",
"                              3 3 7 k.x.s.h.XXW.U. XP.L.|. X X X XP.L.L.L.L.U.U.P.XXb.x.x.i.7 4 >                               ",
"                                3 a 7 % % = - ; ; 1 7.+.O.O.+.+.O.O.O.+.&.7.> 1 - - 6 = % 7 p ,                                 ",
"                                  4 4 $ O O O . . + ;.1.1.:.4.4.4.4.:.:.3.;.$ + . O O   . t :                                   ",
"                                    4 U : . e e e e # O   # 3.6.6.3.#   O + e e e e . & } 3                                     ",
"                                      3 &   G H G G ; - 1 2 -.4.4.-.1 # - ; J G D G . ; i                                       ",
"                                      3 + - =X5X2X2X8X:X4X+X1     2 +X:X:X:X3X2X5X=X- - ,                                       ",
"                                      3 # - 4XqX5X3X4X2XqX2X4 + # r 4XrX5X4X3X2XeX4X- - 3                                       ",
"                                      2 - - <X5XH S D P 2XqX4X:X4X<XqX5XP S S H 2X4X# - :                                       ",
"                    y t r w w w w r 3 p + - 9X5XI u e S -X3X0XqXqXqX5X-Xu e G L 4X4X- & p 3 w w w w w > w t                     ",
"                  t Z n n n n n b N b m . - <XwXtXtX2 . u H 2X0XqX<XH M . 4 tXyXeX;X- . m m x N N n n n n K p                   ",
"                - J x g j j j g j j c h $ 1 <XwXiXuX2 . u H 2X7XqX4XL u   1 tXiXwX;X1 . f g z c c z z c g x J >                 ",
"              w C l c c j j j z g z g f . - <XrXiXyX1 o -X3X6X6X6X6X6X-X. < uXiXeX:X- . f g z z z j j j g c g A w               ",
"              3 A l v v c z z z z z z h $ - <XrXuXyX4 3 3X7X6X6X6X6XqX<X3 t tXuXeX:X# $ f c c c z z z c v v x A >               ",
"                p Y l g z z z z z z j h . - 4XqX0X0X4X<X6X6X7X7X7XqX0X6X<X<XrXqX0X:X- . f j z z z z z z f x Y p                 ",
"                  3 A x j z c j g z z h $ - <XqX0XqXqXqX6X6X6X3X4X3X6X6XqX0X6X6XqX:X- $ f l z z j z c j l K 3                   ",
"                    ; J b g c j g z j h $ - <XqX6X6X6X6XqX6Xr.r.e.r.0X7X6X7X6X6X7X:X: . k z z g g v g x S 1                     ",
"                      > C l c c g z c h $ - <XqX6X6X6X6X2X-X#.#.q.e.-X3X6X6X6X6X7X:X- . f g v z z z x K ,                       ",
"                        r I b g g z z h . - <X7X6X6XqX3XH u D S u S S H 3XqX7X6X7X:X- $ f f v g g x J :                         ",
"                          3 Z b g z g k $ - <XqX6X6X3X+XH u u M e M S H +X3X6X6X6X:X1 . f c z g x A :                           ",
"                            ; J l j v h . 1 4XqX7X2XF H ,X,Xx j g b ,X#XF F 3X7X7X:X1 . f v g b u >                             ",
"                              > C b v B * 7 &X8X6X1XF H 6X5XZ b b Z 5X5XF F 1XqX4X&X; * h c n Z 3                               ",
"                                3 I l g h q * t 4XqX8X5X6X5X1X1X1X1X6X6X5X5XrX5Xr ; q g g b J 3                                 ",
"                                  ; A V c g $ ; *X8X:X5X6X6XqX7X6X7X6X6X9X8X8X*X; $ f z k A 3                                   ",
"                                    ; J b g h q ; 1 # r 4XqXqX7X7X7XqX9Xr o ; ; q h g l J.'                                     ",
"                                    1 p k f h q ; ; % 7 *X4X<X<X2X:X9X*X7 $ ; 6 f f f k ] )                                     ",
"                                  i t * . . . ; R.XXv.y.8 - # 1 # - - 8 y.v.XXR.; . .   . r 3                                   ",
"                                2 s - O @ +   ; T.(.H.h.0 % . O   O % 0 b.H.(.T.;   + @ O : } ,                                 ",
"                              2 3 - ;.3.3.-.O = U.}.).oXh.t.[ ..W [ c.g.oX!.}.T.& O -.<.3.-.& , :                               ",
"                3 4 3 3 3 , 3 i # @ 4.9.6.3.O & R.L.|.XXM.t.{ ~ / { i.M.XX|. XY.& O 3.6.9.4.@ & { i > 3 > > , >                 ",
"              3 3 $ - - - - - 2 ;.3.1.<.2.1.o X |  ._ { [ { ..~ R ..{ [ {  . .| X + <.6.3.1.3.;.> - & & - & $ 3 t               ",
"            1 s r - * - - -   O 1.8.O.O.2.<.+   W ( ! ( ^ E | ` `  .X.~ ( ! ! W   + <.2.O.O.7.<.O   & ; & - - 3 %.t             ",
"          4 3 > >X%XT.U.T.E.-   4.@.T.Q.+.=.@ O ! ( ^ / ~ | Y.P.L.I.| ! / ^ ( ~ X O <.O.E.Q.8.:.O # E.XXK.T.$X@X, 3 :           ",
"        > a - - @X%XOX X XY.1 O :.@.XXXX@.<.O X W ~ T R R ` P.[.[.L.| ! ^ E ~ W O @ :.%.XXXX@.-.@ 2 W. XL.W.%X@X# & a :         ",
"      3 r - ;.:.9.8.+.+.&.+.@.=.< 7 v.n.#.<.+   O @ ~ ( ^ ` L.[.[.L.` ! ( ! @     @ <.#.b.b.7 # X.1.8.o.&.&.8.7.1.X.2 r 3       ",
"      4 # O 4.6.3.4.5.3.4.5.9.3.@ % z.x.#.<.# + + + W ! ! | I. XL.I.| ( ^ Q # + O # 4.q.b.f.5 @ 4.6.3.5.5.4.9.6.9.4.  - >       ",
"      3 - O <.6.6.6.1.6.1.6.9.<.O = z.b.q.1.3.3.3.-.+ X ~ X.` ` ` _ ( ~ X + ;.:.3.<.4.q.b.z.% O :.6.6.7.6.6.6.6.2.<.O - >       ",
"      3 - O <.5.6.6.6.6.6.6.6.1.# & k.i.0.5.6.4.4.:.@ o W ! T ~ T ~ Q W X + 4.9.4.6.6.0.u.k.* # 3.6.6.6.4.6.6.6.5.1.O ; ,       ",
"      3 - + 3.6.6.6.6.6.6.6.6.4.5.;.= ; ;.6.6.3.X # -.-.@ @ ~ ( / ~ @ # <.3.6.6.5.4.5.7.= = >.3.6.6.6.6.6.5.4.6.5.1.O - 3       ",
"      3 - + 3.6.6.6.6.6.6.6.6.5.6.4.+ # <.3.4.:.# + 4.5.+ @ W ! ! W @ < 3.6.6.5.5.1.3.-.X @ 4.6.6.6.6.6.6.6.6.5.5.1.O - >       ",
"      , # + 3.6.6.6.6.6.6.6.6.6.4.5.3.-.# + + # <.3.4.5.1.-.# O . # -.4.5.5.6.5.6.3.+ @ <.3.2.5.6.6.6.6.6.5.6.6.5.<.O - 3       ",
"      2 - O 3.6.6.6.6.5.6.6.6.6.6.6.6.4.#   O # 1.5.5.4.4.-.#   O @ 4.6.4.>.0.,.7.-.# # 4.6.5.4.6.6.6.4.4.6.6.6.5.1.O ; >       ",
"      4 - O <.6.6.6.4.6.6.6.6.6.6.6.6.6.3.3.;.3.5.5.6.3.# @ <.4.3.3.4.6.d I n.u.= @ -.3.1.6.6.6.6.4.6.6.6.6.5.6.5.1.O - 3       ",
"      3 - @ <.6.4.6.6.6.6.1.6.6.4.6.6.6.6.6.6.6.6.4.1.<.+ # 4.6.5.6.4.7.Y Y k.p.6 # 4.6.6.6.6.6.6.6.6.6.6.6.4.6.5.1.X - >       ",
"      3 - + <.9.6.6.6.6.6.6.6.6.6.5.6.6.6.6.6.6.6.3.# # ;.6.6.5.6.6.5.0.p.k.9 6 ;.<.6.6.6.6.6.6.6.6.6.6.6.6.6.4.5.1.O & ,       ",
"      4 # + <.6.4.6.6.6.6.6.6.4.6.4.6.6.6.6.6.6.4.-.# + <.6.6.5.6.>.,.*.k.u.* # 4.6.6.6.6.6.6.5.6.6.6.6.6.6.6.6.5.3.O - ,       ",
"      3 - O 3.6.6.6.6.6.6.4.6.6.4.6.6.6.6.6.6.<.# # -.4.4.4.6.4.d U k.v.9 = >.:.5.4.6.6.6.4.6.6.6.6.6.6.6.5.6.6.5.1.O ; 3       ",
"      , # + 1.6.6.6.6.4.5.6.6.4.6.6.6.6.6.6.6.<.O O 6.6.4.5.6.1.Y Y k.y.= @ 4.9.4.6.6.6.6.6.6.4.6.6.6.6.6.6.6.5.5.1.O - >       ",
"      3 # + 3.6.6.4.6.6.6.6.6.6.6.1.6.6.6.6.5.1.X O <.5.6.5.6.q.u.c.9 = ..6.4.5.4.5.6.6.6.6.6.6.6.6.6.6.6.6.6.4.5.<.X & 3       ",
"      4 - O <.6.6.6.4.6.6.6.6.6.6.6.6.6.6.6.6.<.X O <.6.5.7.,.*.n.i.* @ 4.9.6.5.6.6.6.6.6.6.6.6.6.4.6.6.6.6.6.6.5.<.O ; >       ",
"      3 - O <.6.4.6.6.1.6.6.6.6.6.6.6.6.6.6.5.3.O O <.6.5.>.c.c.9 * >.:.4.6.6.6.6.6.6.6.6.6.6.5.4.6.6.6.5.6.6.6.6.1.O - 3       ",
"      3 - + <.9.6.5.6.6.6.6.6.6.6.6.6.6.6.5.5.1.+ + 3.6.5.0.x.f.5 O 4.9.5.6.4.7.6.1.6.6.6.6.6.4.6.6.4.6.6.6.5.6.5.1.O - >       "
};
