/* XPM */
static char *_614433911572[] = {
/* columns rows colors chars-per-pixel */
"64 64 254 2 ",
"   c #2E1B08",
".  c #3A230E",
"X  c #3D2B1C",
"o  c #382715",
"O  c #382C23",
"+  c #3C332A",
"@  c #471C06",
"#  c #571506",
"$  c #49240B",
"%  c #442A18",
"&  c #562A17",
"*  c #48321C",
"=  c #572E14",
"-  c #722618",
";  c #462E22",
":  c #4B352A",
">  c #4B3A2B",
",  c #473526",
"<  c #583925",
"1  c #4A3D33",
"2  c #563D31",
"3  c #653826",
"4  c #773429",
"5  c #6C1E14",
"6  c #57422D",
"7  c #4C4335",
"8  c #54493D",
"9  c #554539",
"0  c #49503E",
"q  c #664735",
"w  c #79553B",
"e  c #6A482F",
"r  c #544C44",
"t  c #5A4C45",
"y  c #5B5448",
"u  c #525247",
"i  c #65564A",
"p  c #74584A",
"a  c #655D53",
"s  c #695B54",
"d  c #6D574F",
"f  c #6A6358",
"g  c #766659",
"h  c #72624C",
"j  c #796C65",
"k  c #777368",
"l  c #7C7973",
"z  c #6E6862",
"x  c #58604B",
"c  c #8A2C1E",
"v  c #992C29",
"b  c #8A3229",
"n  c #943229",
"m  c #963836",
"M  c #8A2F2B",
"N  c #A42B29",
"B  c #B52E2D",
"V  c #BB2D2D",
"C  c #B72B27",
"Z  c #AC342D",
"A  c #A6342D",
"S  c #B4322C",
"D  c #BC312E",
"F  c #B6372A",
"G  c #B52E31",
"H  c #BC2E31",
"J  c #AB3832",
"K  c #B43333",
"L  c #BD3231",
"P  c #B33A32",
"I  c #BA3A38",
"U  c #962116",
"Y  c #C22D2E",
"T  c #C22E32",
"R  c #C52B31",
"E  c #C03231",
"W  c #C03C38",
"Q  c #C0302F",
"!  c #984537",
"~  c #895837",
"^  c #9C5D3B",
"/  c #97593A",
"(  c #8A492E",
")  c #AB442F",
"_  c #A84535",
"`  c #B64936",
"'  c #A5573B",
"]  c #B85838",
"[  c #B54C2C",
"{  c #9B633D",
"}  c #99673B",
"|  c #976F3E",
" . c #A2633E",
".. c #A5693A",
"X. c #B0693D",
"o. c #B0451B",
"O. c #994946",
"+. c #9C544A",
"@. c #90564B",
"#. c #A45D42",
"$. c #A65A56",
"%. c #BA5043",
"&. c #896547",
"*. c #9C6543",
"=. c #9C6A44",
"-. c #986848",
";. c #9B7149",
":. c #866A57",
">. c #98795C",
",. c #916C57",
"<. c #A26443",
"1. c #A36C45",
"2. c #A96B45",
"3. c #A36C4A",
"4. c #AB6A49",
"5. c #B96A48",
"6. c #A6734B",
"7. c #AA724B",
"8. c #A87447",
"9. c #B77849",
"0. c #AA6A52",
"q. c #B96953",
"w. c #AC7B54",
"e. c #A97756",
"r. c #B77956",
"t. c #847669",
"y. c #9A7962",
"u. c #847B75",
"i. c #896960",
"p. c #B97A66",
"a. c #B6736F",
"s. c #B05C63",
"d. c #C26A4B",
"f. c #C56957",
"g. c #C57A59",
"h. c #C5734E",
"j. c #C57A64",
"k. c #C77971",
"l. c #C55950",
"z. c #7D8476",
"x. c #BC8355",
"c. c #B5845C",
"v. c #BB845C",
"b. c #BD8A5C",
"n. c #B38255",
"m. c #AF8859",
"M. c #8A857C",
"N. c #988678",
"B. c #AA8667",
"V. c #BC8C63",
"C. c #B88767",
"Z. c #BE936C",
"A. c #BA9268",
"S. c #A78B77",
"D. c #B88976",
"F. c #BA9476",
"G. c #A7927B",
"H. c #C2855B",
"J. c #C8865B",
"K. c #C0925E",
"L. c #C38C64",
"P. c #C38C6B",
"I. c #C88967",
"U. c #C59165",
"Y. c #C5936B",
"T. c #CA936C",
"R. c #CC9A6C",
"E. c #C99568",
"W. c #D19A6C",
"Q. c #C38C72",
"!. c #C78A78",
"~. c #C59472",
"^. c #CB9573",
"/. c #C59A74",
"(. c #CC9B74",
"). c #CC957A",
"_. c #C59D7D",
"`. c #CC9C7C",
"'. c #C4947B",
"]. c #D19E73",
"[. c #D2987A",
"{. c #D38E7D",
"}. c #CCA17D",
"|. c #CBA377",
" X c #D3A47B",
".X c #D5A97D",
"XX c #D6A679",
"oX c #D9B27E",
"OX c #C67D89",
"+X c #938D84",
"@X c #B79986",
"#X c #AB9284",
"$X c #C68987",
"%X c #CC9D82",
"&X c #CB9C8B",
"*X c #C49884",
"=X c #D39C83",
"-X c #D79B87",
";X c #CD8F8B",
":X c #CCA283",
">X c #CCA38A",
",X c #CBA789",
"<X c #D3A384",
"1X c #D4AB83",
"2X c #DAAC84",
"3X c #D4A58B",
"4X c #DAA58D",
"5X c #D4AA8D",
"6X c #DAAC8C",
"7X c #DAA783",
"8X c #DCB286",
"9X c #DDB38B",
"0X c #D7B388",
"qX c #CBA696",
"wX c #DBAC93",
"eX c #DBAC9B",
"rX c #D5A794",
"tX c #DCB393",
"yX c #DDB49B",
"uX c #DBB899",
"iX c #C5B09D",
"pX c #E1B58D",
"aX c #E0B98E",
"sX c #E4AC96",
"dX c #E1B594",
"fX c #E3BA94",
"gX c #E2B49B",
"hX c #E3BB9B",
"jX c #E9BB9C",
"kX c #E1AC84",
"lX c #D9B9A4",
"zX c #D3B3AB",
"xX c #E3BCA3",
"cX c #E6BBA6",
"vX c #E99C94",
"bX c #E4C09C",
"nX c #E6C299",
"mX c #DAC4AA",
"MX c #E4C3A4",
"NX c #E5C3AB",
"BX c #EAC5AA",
"VX c #EBCAAD",
"CX c #E9C7A7",
"ZX c #ECCCB3",
"AX c #E8CAB5",
"SX c #F1CCB5",
"DX c #EED3B5",
"FX c #ECD2BA",
"GX c #F1D3B6",
"HX c #F2D4BA",
"JX c #F4D8BC",
"KX c #F1CCAF",
"LX c #F5D7C5",
"PX c #F3D3C3",
/* pixels */
"T T E T R D Y D S V D D D D D D G O.O.O.s.s.$.$.@.s.$.@.O.+.+.+.+.$.+.+.+.O.O.O.+./ J G Y B F Y Y V Y D B L D S V D D E E T L D ",
"L V S L L K L L K L H B V G G H J O.g t.+X#X+X+X+X+XM.u.l l t.t.t.t.u.k i.j j g h h @.K H H K V K B K L H I K R L L L Y V V E Q ",
"V Y V K N M M O.O.m b m O.+.$.$.s.i.j l +X+X+Xu.+X+X+Xl l l l M.l l l k k j j j k g :.O.O.O.O.O.O.m O.m m ! O.I H H E V V T E E ",
"F R H K 4 : 2 p g i 6 8 g k M.+X+X+Xl +X+X+X+X+Xu.u.+Xl k l u.l u.l l j z k u.t.M.z.k k g z k j j g f y d x p O.H L I S D E D L ",
"K G b 4 3 , > i s d d s i.k u.+Xu.l j k j j k l k k j z f z k k l k k z f z k k f f z f z f f s f s x y y x y 4 c - c c N D Y D ",
"H n 3 * % % : i s i.u.u.u.l j z z s a a a a a a a t t i i s f z f f f s i a f f r r u y t r r u t y u r r r 7 *   $ = # c S V L ",
"R N = % X * : y i s s s f z a u r u y r r t i i a s f h f f a f f f g f f f a x i t r r r r t t i y t t r 1 > * . . $ $ - L Y K ",
"K v # $ % > : 8 u 1 : 1 y a r O O 1 r 9 1 7 r u i j t.g h h i i g j g p g f s f y t 7 1 1 1 8 8 y y r y 7 , , X % $ $ @ - H H K ",
"F N # $ 2 t y 1 7 + + : 7 r 1 + + 1 8 9 t q i.N.+X@X@XG.#XG.N.N.G.N.#XN.M.N.G.G.g h a 8 9 8 8 0 8 8 7 7 6 % * * % % $ % 5 c c Z ",
"S N # $ q j f 1 , + O O : : : : , 9 9 i p :.#XzXmXFXFXFXFXmXlXlXmXmXmXiXiXmXAXVXG.B.:.8 8 9 9 6 , > > + , , , X o * * * & 5 - N ",
"D N # $ 6 g s 8 1 : : : p h &.:.:.,.y.y.S.S.rXNXmXFXDXDXDXAXNXmXmXAXmXmXmXmXDXVX,XF.G.m.y.:.h e , , O O o X X X * * ; , & & 5 N ",
"C N = & 6 9 2 t r r r t S._.}.5XtXtXtXhXcXxXZXDXFXFXJXDXJXDXGXHXJXDXFXFXDXDXDXKXnXuX0X,X:XA.A.;.= *       o o % , + X O ; < & m ",
"F v $ $ ; 2 2 t r r t i A._.}.0X8X8X8XdXnXjXBXCXAXVXFXDXHXDXGXHXJXDXDXDXDXVXVXVXnXfXdX6X6X/.~.c.-.&.* . o X o : : : ; X % X = v ",
"S v     . ; : r y i s d F.:X:X0X8XaX9XaXfXnXCXKXDXDXFXHXHXFXFXDXVXDXAXCXVXCXMXnXnXfXfX6XpX2XkXXX:X_.p * , , + 1 1 : o . $ $ & A ",
"G v   . o % % 9 r t i p @X1X0X9X9X8X9XpXfXfXhXjXBXBXBXZXSXZXZXDXVXDXVXVXCXMXbXnXtXtXtX9X6XkXoXoXoX.X;.w i , 1 : 2 : %     # # N ",
"B m X o o % X 1 1 t d h *X6X8XaXpX9X8X2XpXdX5XrXwXhXBXBXZXZXAXZXDXDXCXMXMXnXuXuX0X0X0XtX6XpXoXkX.X0XZ.A.y.2 1 1 + : %   @ # # N ",
"B v ; ; O % X ; * 9 g g |.oXoXpXaXpXdXfXjXjXjXdXhXBXcXNXAXNXVXVXCXAXVXNXNXCXcXxXgXdXpXpX6X9XpX6X0X.XZ.A.>.7 , 1 X X o o & U U N ",
"G A < : ; % o % % 9 :.,.|.oX8XfXaXfXhXnXCXCXCXBXBXBXBXCXVXZXZXCXAXVXVXBXBXBXVXKXMXhXfXpXpX8XpXpX1X0XF.A.m.6 , O o o o o - Z N B ",
"H N < < * & % * * w >.>.}.0X0X9XpXaXfXnXCXCXVXKXKXVXVXAXCXZXVXVXZXZXZXKXVXKXKXKXBXCXnXfXfXpX9X8X0X0X/.A.>., , o . % * $ b K B C ",
"G v < < , < 2 2 < &.A.A.:X0X0X0X8XnXfXbXnXCXVXGXJXSXJXHXFXFXFXGXHXFXJXJXGXGXGXGXKXCXCXnXnXfXdX9XoXoXZ.A.m.* 6 * . o 6 3 b B V T ",
"V A q 3 < q 2 9 < &.Z.R.XXkX8XpX9XfXbXMXCXnXVXDXAXAXFXFXZXFXAXFXFXAXPXFXZXZXFXVXCXVXMXbXbXfXdX9X0X.X(.`.B.< = * % % < 3 n V K E ",
"B A e q e w q e e >.|.|..XoX2X8XfXMXCXCXnXuXbXmXcXAXNXAXZXZXFXZXAXHXAXNXNXAXNXAXMXxXmXuXuXuXfXtX1X.XXXXXc.3 6 < = = < 3 b G G B ",
"B A 3 3 p -./ -.;.m.1X7X2X6X<X}.}.@X:XG.B.B.S.D.@XyXyXyXxXyXxXxXxXlXlXyXuX,XF.D.B.y.B.F.D.*X>X:X:X1X.X].Y.=.-.~ ~ w 3 & M H I L ",
"H N 3 3 / r.c.R.W.|.7X<X2XdX}.B.B.B.>.:.p e @.&.0.5X4X4X5X<XyXwXwXwX5X5X>XB.w ~ e e e &.&.B.F.F.,X1XXX].XXR.E.x.8.| 3 3 M H F V ",
"H G n c 4.L.I.(. X7X7X.X1X1X|./.Z.~.F.F.F.D.D.D.Z.}.}.<X3X5X5X8XwX4X6X}.}.F.B.D.B.S.B.D.F._.*X=X].].(. XR.R.R.U.b.w.b n n Z F Y ",
"G H P A 5.E.E. X.X X X X.X.XXX(.|.1X9XtXNXAXuXuX6X|.(..X<X3X5X6X5X<X3X}.|.<X2X6XmXVXBXuXgXfXsXkX^.^.].].(. X|.R.W.I.K B V T H T ",
"G R H C h.R.].XX.XXX(.R.R.E.K.H.v.T.W.`.uXzXF.I.~.Y.Y.|.|.:X5X5X3X:X<X^.^.).].(.,X0X,X&X:X].W.W.W.P.^.T.R.].R.R.W.J.I V T R G I ",
"Z C B Z h.R.XX.X.X|.|.R.U.H.H.9.7.r.L.~.qX>Xp.3.e.L.E.E.R.(.,X5X,X3X3X).).~.Z.Y.F.F.G.D.D.Y.T.E.E.I.W.W.W.XXXXW.R.J.P F B C B I ",
"o.F d.d.g.W.W..X.X.X.X XU.v.9.^ ^ P.&XS.,.,.D.@X~.C.c.E.R.|.uXNXdX<X<X!.Q.*X5X>X:.p ,.@X@X6.<...9.r.E.E.R.|.W.W.].T.h.d.] [ [ F ",
"o.[ J.J.E.W.W.XX1X2X8X|.A.c.8.( ~ *XzXS.3 3 #XzX>Xc.w.Y.Y.:XHXLXjX<X4X~.C.>XlXqX3 . @.zXqX&.4 ( 7.7.K.R.R.R.].E.R.R.T.W.m...] o.",
"[ ] H.I.J.K.E.XX.X1X9X8X.X|.Z.w.e.'.&XD.&.-.F.qX:X:X`.7X}.0XLXLXBXwX0X1X_.qXlXqX,.@.y.3X&Xe.-.e.~./.}.2X1X X X(.E.U.J.J.X.] ] Q ",
"] ] I.H.J.b.U.|..X0XnXnXnXnXfX0XkX^.L.E.P.P.~.Z.@XNXcXcXnXbXJXLXZXxXuX9XbXrX*X@XZ.P.D.Q.^.C.L.|.xXjXhXfX6X<X].T.K.H.d.X.X.] ] F ",
"q.q.k.j.H.x.H. X.X8XdXfXdXdXfXjXjX<X`. X:X:X5X5XrXxXxXtXhXcXJXLXKXyXtXgXhXtXtXqX`.%X%X%X<X<X3X<XgXgXdXdX2X[.|.E.b.J.h.h.5.d.d.L ",
"f.r.I.I.H.H.L.XX7X2X6XtXdXfXgXcXcXyXwXwXyXuXxXMXNXgXjXjXhXcXJXLXNXyXhXdXgXhXcXlXwXwXwXeXgXgXhXgXwXwX9XpX2X X].Y.K.K.r.g.h.g.f.I ",
"h.g.Q.^.I.g.L.R.[.7X7X<X4XwXsXgXgXlXlXlXMXNXxXNXcX<X<XsXgXgXPXPXVXMXjX6X5XeXxXcXlXlXlXzXxXeXgXeX-X-X=X7X X[.].U.J.x.r.r.f.j.f.` ",
"d.g.~.%X^.H.L.Y.^.[.).&X-X4XrXrXeXcXAXNXZXNXNXxXwX).`.5XgXcXPXLXSXBXNX6X5XeXsXsXcXAXcXAXcXcXcXrX-X=X[.^.^.W.T.J.J.g.r.g.g.I.j.W ",
"E.R.[.<X^.H.I.I.Y.^.).%X4XwXwXeXeXcXcXcXcXcXyXtXeXwX6XsXcXcXSXPXPXBXcXgXsXwX4XwXcXcXcXcXcXzXsXeX-X-X^.T.T.T.T.K.J.J.I.I.I.I.j.W ",
"XX.XvX4X^.J.J.I.U.Y.^.).<XwXwXsXsXcXNXcXxXlXtX5XdXjXjXgXcXcXSXPXSXBXBXjXjX6X4X4XeXcXcXAXcXeXsXrX-X=X^.T.T.T.E.U.J.U.(. XI.H.h.` ",
"q.j.=X-XE.J.H.L.L.Y.T.^.=X3X4XwXwXgXxXlXyXwX3X).[.[.[.[.;X).eXeX-X<X.X X7X=X).).sXgXxXlXcXrX4X-X{.[.T.P.T.I.I.J.J.E.:X6Xj.%.%.F ",
"C %.{. XA.x.r.V.v.I.T.^.[.[.<X5X6XwXyXeXeXwX4X).T.r.r.j.L.j.{.'.W.T.W.I.^.T.T.;X4XeXwXyXeX4X3X4X).).T.P.T.j.I.L.J.E.<XsXf.V V V ",
"H I vXrX).r.L.C.b.Y.^.).).`.`.<X,X6X6XwX4X4XrX4X{.O.' 4.q.r.p.p.r.q.h.2. .p.<X%X4XrXrXwX5X<X=X[.^.^.T.T.I.v.b.H.J.Y.0XgXf.G G V ",
"G l.vXsX-XI.J.c.b.T.[.`.).`.`.:X>X5X5X4X4X5XwXwX!.( b $.s.a.$.$.0.0.#.! ! e.-XsX4X4X4XwX4X<X[.`.T.T.Q.P.P.b.H.H.g.Y.4XsXj.H V V ",
"G H f.s.g.H.H.v.v.L.^.).`.`.`.%X*X>X3X3X3X5X5XtX>Xp.a.$X$X@Xa.k.D.$X'.p.p.;XeXeX4X4X3X4X5X%X[.(.T.T.P.Y.L.v.H.H.J.H.f.f.%.B V T ",
"H G G K %.9.x.x.c.Y.~.`.`.`.[.:X`.<X<X:X>X>X5XeXrXeXrXrXrXrX;X;XqXeXlXrXqXrXeXeX4X4X<X3X<X X}./.T.I.L.Y.L.v.x.H.J.5.Z N G H D V ",
"S V L D ] 9.h.x.v.P.^.^.(.(.^._.(.}.`.:X:X>XrXrXqX&X;X%X`.$X!.k.{.%X%X&X3X3XrXrX-X3X=X<X:X`.|./.T.E.U.U.K.x.x.x.9.h.P B H E B Y ",
"D R V C ` X.X.9.v.I.P.Y./.(.~.).R.(.}.:X:X&X&X&X&X&X&X`.^.Q.D.k.Q.!.).&X5X:X:X%X<X%X%X%X}.`.`.(.Y.Y.U.U.J.x.x.9.9.h.D V V H S E ",
"F T H K ] 5.9.9.r.v.L.P.Y.~./.^.~.`.}.`.%X`.F.C.D.D.a.D.@X$X{.k.!.D.D.$X@XF.F.~.`.}.<X<X.X`.`./.Y.U.V.L.K.x.x.x.9.X.Z F V E L L ",
"L T G L ` 5.f.r.q.r.C.V.Y.Y./.~./.}.:X_._.Y.p.e.e.a.OXOXOXOXOXOXOXOX$X@X!.D.P.C._.`.:X<X<X`.`.^.Y.Y.b.b.x.x.X.X.h.X.F L C Y L Y ",
"H L C V I ` ` 5.0.e.w.w.V.Y.Y.Q.~.`.}.|.F.Z.Y.L.C.p.p.$X$X;X$XOX$X$X!.!.Z.Z.Y.Z./._.|.:X:X`.).~.P.P.r.7.9.9.9.] ` I K D H H E T ",
"H L E V S S J 5.4.4.7.r.C.L.P.C.P././.F.Y.Z.Y.(.^.P.Q.$X$X;X;X;X;X$X!.Q.P.Y./.(././.|.}.}./.~.Q.p.C.r.8.X.9.1.` F S S G T T E D ",
"Q K L D L B F #.4.2.4.7.r.r.c.C.c.A.A.L.A.V.A.Y.P.Q.P.k.k.p.j.g.a.!.P.Q.P.^.(.(.Z.A.Y.~.~.V.C.v.e.w.2.2.2.8.1.[ Z B B L E Q E H ",
"E D D V T V P #. .<.<.3.0.7.e.n.r.n.c.c.V.c.V.V.P.Q.Q.C.p.q.0.4.e.p.P.Q.Q.^.T.Y.U.A.A.U.A.c.c.n.7.8.2.X...| ;.) B L L L D D Q Q ",
"R D D D V H P #. .*.*.-.3.<.1.6.8.n.n.c.v.V.Y.V.^.[.%X'.*X!.D.D.$X&X&X&X&X).T.Y.c.m.c.n.n...8.8.4.2.......| ;.) V V V D V Q Q E ",
"R Q E D B H K ' '  .{ } +.{ { 1...w.r.n.c.C.V.P.~.=X3X>XqX>X&X>XeXeXeX4X3X%X/.Y.b.m.n.w.n...| ........} ....<.` H L L E E Q L Q ",
"E D E E K H L _ _ ' { { { ^ { { { ..6.6.6.w.C.L.Q.*X%X*X%X:X@X}.*X5X&X*X'.~.C.C.n.8.| ....} } ....8...| [ ) ) F L L L L L E Q E ",
"E D Y Y L T V S B ` ' } {  .^ { ^ { ~ -.;.6.w.C.C.'.!.'.%X`./.Y.}.:X_.~.P.C.e.w.8.| ..| ..} } } ;.1.{ } ' o.S B L H D D L L E E ",
"E E Q Q E V D Y Z _ ^ &.{ *.<.=.*.=.*.*.;.3.*.3.3.p.B.p.m.B.C.B.B.m.e.m.e.;.-.-.*.<.<.=.;.1.1.=.<.1.*.<.' Z V E V L Q E E L E E ",
"E E L E V E D V S _ / { *.#.<.=.<.=.=.*.=.+.} @.-.3.6.6.6.e.w.n.;.-.-.-.-.&.~ ~ | } } =.1.2.4.2.<.*.^ ^ _ P V R H D E D E E Q E ",
"E E E D E Q Q D S S J ! ~ ~ &.-.<.<.3.3.7.7.3.-.-.*.=.=.=.=.6.=.=.=.;.1.3.3.3.=.=.6.1.3.1.<.1.=.| *._ ) P F D D Q E Q E L E E E ",
"E E E E E D D Q L T V A ( ~ / ' #.3.=.;.6.0.6.3.<.^ { *.{ } { { =.1.1.3.3.7.6.7.w.5.7.8.6.1...=.~ / J V V V D K E D L Q E E E E ",
"Q L E E Q E D D V K K P P J ) _ _ +.-.-.=.1.1.=.1.{  .1.<.1.7.1.3.3.4.1.1.1.1.3.1.1.=.-./ ' ) ) J J P D K D Q Y E D E E E E E E ",
"E E E E L Q E Q T H B V L B B B J _ ' ^ #.<.<...1.<.<.2.2.7.7.7.7.7.7.1.6.1.=.1.1.<.<.#.' J B V Z D V D E D E Y E E E D E E D E ",
"E E E E E E E Q E E R V S S S L G J _ J _ _ ! ^ ^  .'  .<.<.*.*.{ *.} } } } / ~ ) _ J _ J S V S D D V V Y Y L L E E E E E E E E ",
"E D E E E E D L V E L V D L T V H L G B V S ! / / ^ ^ ^ ^ ^ / } } / / } ~ ~ ( ~ Z S S L L D T K Y Q S L E E Q F E E E E E E E E "
};
