/* XPM */
static char *_614434650156[] = {
/* columns rows colors chars-per-pixel */
"64 64 240 2 ",
"   c #090508",
".  c #120A0D",
"X  c #140B0E",
"o  c #18100F",
"O  c #150E11",
"+  c #1C0F10",
"@  c #1B1112",
"#  c #171011",
"$  c #3A1C02",
"%  c #310E11",
"&  c #221414",
"*  c #291716",
"=  c #3B1917",
"-  c #28110F",
";  c #3C2203",
":  c #3E211B",
">  c #362A26",
",  c #4A1516",
"<  c #781E0A",
"1  c #781C1D",
"2  c #70141B",
"3  c #442407",
"4  c #452608",
"5  c #462B0C",
"6  c #4D2C0D",
"7  c #48270A",
"8  c #522D0E",
"9  c #5A290E",
"0  c #52310F",
"q  c #4F2E10",
"w  c #44271E",
"e  c #512E11",
"r  c #5F2E11",
"t  c #543113",
"y  c #5B3515",
"u  c #5C371A",
"i  c #63270E",
"p  c #77200D",
"a  c #623A1C",
"s  c #683D19",
"d  c #732E15",
"f  c #482921",
"g  c #4F3026",
"h  c #573627",
"j  c #643C22",
"k  c #74471F",
"l  c #6C411C",
"z  c #5F412E",
"x  c #6C442B",
"c  c #764B28",
"v  c #7D522D",
"b  c #764932",
"n  c #7B4D36",
"m  c #7A5132",
"M  c #694939",
"N  c #7C6A59",
"B  c #9F100F",
"V  c #87091B",
"C  c #980E18",
"Z  c #8D131D",
"A  c #891A1C",
"S  c #9D1414",
"D  c #92151C",
"F  c #951B1C",
"G  c #9B1B1B",
"H  c #951516",
"J  c #90140B",
"K  c #AE040A",
"L  c #B50203",
"P  c #BA0405",
"I  c #B4020A",
"U  c #BA060A",
"Y  c #B40C0C",
"T  c #BB0B0B",
"R  c #A0110F",
"E  c #B4110E",
"W  c #BA130D",
"Q  c #B7180E",
"!  c #A11111",
"~  c #AC1414",
"^  c #A61916",
"/  c #A41C1B",
"(  c #A91C1C",
")  c #A71718",
"_  c #B31212",
"`  c #B91312",
"'  c #B81C18",
"]  c #B10911",
"[  c #96221E",
"{  c #9A211E",
"}  c #982A1C",
"|  c #8F2C1A",
" . c #A72319",
".. c #B62819",
"X. c #A93B18",
"o. c #AB3119",
"O. c #BE3014",
"+. c #8A1E20",
"@. c #931920",
"#. c #9B2121",
"$. c #972F2A",
"%. c #992B27",
"&. c #98342C",
"*. c #983B33",
"=. c #8D2020",
"-. c #A42522",
";. c #BB2C25",
":. c #B92823",
">. c #A93C32",
",. c #BA382B",
"<. c #C20B0A",
"1. c #C00507",
"2. c #C01F19",
"3. c #C23714",
"4. c #C2231C",
"5. c #B85819",
"6. c #B74D1C",
"7. c #BE6318",
"8. c #86572D",
"9. c #97463B",
"0. c #8A5C34",
"q. c #865639",
"w. c #935C37",
"e. c #8B502C",
"r. c #B24435",
"t. c #99673A",
"y. c #916132",
"u. c #A56D35",
"i. c #B67A3E",
"p. c #A87139",
"a. c #C64413",
"s. c #C74B16",
"d. c #CB5917",
"f. c #CF5A12",
"g. c #C36C19",
"h. c #CA671A",
"j. c #D46B18",
"k. c #CA7618",
"l. c #D87815",
"z. c #D9730D",
"x. c #C3493C",
"c. c #994F42",
"v. c #8A5945",
"b. c #945E4C",
"n. c #975648",
"m. c #95614E",
"M. c #9A6849",
"N. c #966351",
"B. c #9A6453",
"V. c #9A6A58",
"C. c #957150",
"Z. c #AC784A",
"A. c #BC7F42",
"S. c #B57C46",
"D. c #A66747",
"F. c #937C67",
"G. c #A75A40",
"H. c #C55545",
"J. c #CA725C",
"K. c #CE7050",
"L. c #CB7B64",
"P. c #D18214",
"I. c #DF8513",
"U. c #D88A16",
"Y. c #DD9214",
"T. c #DD9B17",
"R. c #CF8013",
"E. c #E18A13",
"W. c #E29212",
"Q. c #E39B11",
"!. c #E99C12",
"~. c #E6970F",
"^. c #EBA90D",
"/. c #F1AC0D",
"(. c #F9BB08",
"). c #E6A312",
"_. c #E9A413",
"`. c #EAAD14",
"'. c #FDBD10",
"]. c #D4893E",
"[. c #FDC402",
"{. c #FFCC02",
"}. c #FDC70A",
"|. c #FFD303",
" X c #FFDB02",
".X c #FFD90B",
"XX c #FBCB13",
"oX c #FFE207",
"OX c #BC844B",
"+X c #B08052",
"@X c #B59779",
"#X c #C88948",
"$X c #D38D44",
"%X c #D28D4B",
"&X c #D69144",
"*X c #DC9445",
"=X c #D3924C",
"-X c #DB954A",
";X c #DF9847",
":X c #C88A54",
">X c #CD945B",
",X c #CE9353",
"<X c #D39655",
"1X c #D59856",
"2X c #D39759",
"3X c #D49859",
"4X c #DB9D5B",
"5X c #D89550",
"6X c #E29A4B",
"7X c #E79B48",
"8X c #DDA15F",
"9X c #C98468",
"0X c #D3896B",
"qX c #D39D63",
"wX c #D39E6C",
"eX c #CE9871",
"rX c #DDA161",
"tX c #D3A16C",
"yX c #D3A066",
"uX c #C7A27B",
"iX c #D5A978",
"pX c #E6A561",
"aX c #EFA84F",
"sX c #B99E82",
"dX c #BCA185",
"fX c #C7A786",
"gX c #D7AD84",
"hX c #D5B48E",
"jX c #D8B387",
"kX c #D8B691",
"lX c #DBBA93",
"zX c #D9BF99",
"xX c #D6BA95",
"cX c #CEB293",
"vX c #E0BB97",
"bX c #DBC29B",
"nX c #D7C199",
"mX c #E4C39B",
"MX c #DCCCA4",
"NX c #EBC7A0",
/* pixels */
"T T T T T T T T T T T T T T T T T T <.W Y T <.T ` ( / / G / / / / / / / G _ T T T T T T T T T T T T T T T T T T T T T T T T T T ",
"T T T T T T T T T T T T T T T T T U P P P P L L T G H D H Z F F F F F [ F ~ T U T T T T T T T T T T T T T T T T T T T T T T T T ",
"T T T T T T T T T T T T T T Y ` U ;.9XL.L.L.L.L.L.L.+X9X9X9X9.9.9.9.9.#.@./ ^ ( W T T T T T T T T T T T T T T T T T T T T T T T ",
"T T T T T T T T T T T T U L L P P r.mXzXnXnXnXnXnXzXzXMXbXzXV.B.M.N.N.[ G F F  .W U T T T T T T T T T T T T T T T T T T T T T T ",
"T T T T T T T T T T ` I :.L.J.J.J.9XtXwXtXtXtXtXuXtXtXtXtXwXB.b.b.m.b.9.9.9.9.9./ ^ ` T T T T T T T Y T T T T T T Y T T T T T T ",
"T T T T T T T T T T P L ;.mXzXzXbXgX-X<X3X<X<X<X2X3X3X<X2X2XB.B.B.B.B.m.N.N.B.n.@.F ~ <.T T T T T T I T T T T T T I T T T T T T ",
"T T T T T T T Y Y T x.K.K.iXtXiXiXwX3X3X3X3X3X3X3X3X3X3X3X2Xn x x x b b.m.m.b.n.9.*.-.~ _ Y T T T T T T T T T T T T T T T T T T ",
"T T T T T T T U L L 0XMXjX<X2X<X2X2X3X3X3X3X3X3X3X3X3X2X3X2Xe 4 6 7 8 m.B.B.B.B.N.N.*.H / <.U U T T T T T T T T T T T T T T T T ",
"T T T T U T U ' H.H.0XiXtX3X3X3X3X3X3X3X3X3X3X1X3X3X3X3X8X>Xy 6 8 6 0 b b b b n b.m.9.*.&.~ ~ ` T T T T T T T T T T T T T T T T ",
"T T T T <.W P ;.zXzXyX<X1X1X3X3X3X1X3X3X3X3X3X3X3X3X3X3X1X>Xy 6 6 0 6 7 5 7 7 t B.B.m.N.n.@.@.` T T T T T T T T T T T T T T T T ",
"T T T T T W P ;.kXhXwX<X3X3X3X3X3X3X3X3X3X3X3X2X3X3X3X3X1X>Xu 6 0 6 0 6 t 6 q t n n v.m.n.*.*.( _ _ T T T T T T T T T T T T T T ",
"T T T T T T P ;.kXhXwX<X3X3X3X3X3X2X3X3X3X3X3X3X3X3X3X3X1X>Xt 3 6 6 6 6 6 q 6 6 6 7 n V.N.N.B.$.D / T T T T T T T T T T T T T T ",
"T T T T T W P ;.xXhXtX<X3X3X3X3X3X3X3X3X3X3X3X>X>X3X3X3X3X>Xc k a 6 6 6 6 q 6 6 0 5 x q.q.b.N.*.$.%._ _ T T T T T T T T T T T T ",
"T T T T U W P ;.kXcXyX<X3X3X3X3X3X3X3X3X1X<X2X<X1X1X3X3X2X3X-X6Xy.; 6 6 6 6 6 8 6 8 6 4 u N.m.m.N.n.F F _ U T T T T T T T T T T ",
"T T T T T T T ;.kXhXtX1X3X3X3X3X3X3X1X3XyXqX8XqXyX>X3X1X3X3X%X-Xt.s s e 8 6 6 6 6 6 0 7 u m.b.b.N.c.F #._ T T T T T T T T T T T ",
"T T T T T T L ..xXhXyX2X3X3X3X3X1X1X2X2XjXxXlXxXkX8X2X3X3X3X3X3X-X*X#Xq 5 6 6 q 0 6 6 6 u N.N.m.N.c.F G _ T U T T T Y T T T T T ",
"T T T T U ..:.x.hXjXyX3X3X3X1X4XqXqXqXqXuXfXdXuXuXyXqX3X3X3X3X3X=X&X#Xs s y 6 6 8 6 0 5 u v.v.v.N.c.%.%._ ` ` Y T T T T T T T T ",
"T T T T L J.vXiX3X3X3X3X3X3X1XjXkXhXhXlXh : f : w fXlXiX<X3X3X3X3X2X2X$X*X8.3 8 5 6 6 6 q q 6 q.V.m.b.b.$.G ( T T T T T T T T T ",
"T T T Y L J.zXgX3X3X1X2X3X3XqXuXfXfXfXcXM f g g h @XcXuX2X3X3X3X3X3X<X&X-X0.8 y y y 8 8 6 6 6 n b.v.B.m.$.F ( <.T T T T T T T T ",
"T T T T L J.zXgX1X1X1X2XyXhXlXM f g g f S.$X%X3X>Xh : q.8X<X3X3X3X3X1X2X1X=X#X#X$X=Xc 3 6 q 6 e 6 j m.m.$.@./ T T T T T T T T T ",
"T T U W L J.lXiX>X>XqX2XyXcXcXM : : : : OX*X=X1X3Xh : 0.8X<X3X3X3X3X3X3X3X5X&X&X$X-X8.6 t 6 6 6 7 a N.m.$.F ( ` T T T T T T T T ",
"T T T T Y ` 2.{ : @ C.pX+Xg h #         Z.4X2X3X>X>X:X>X3X3X2X3X3X3X3X3X3X<X<X3X<X<X#X].i.6 6 q 6 a N.m.$.G ( T T T T T T T T T ",
"T T T T T U 1.B @ . C.pXZ.: : .         +X8X1X3X3X4X1X1X3X3X3X2X3X3X3X3X3X3X3X3X3X3X=X*Xi.8 6 q 7 a N.m.$.G ( T T T T T T T T T ",
"T T T T T Y U :.dX@XqX1X:X].].@XsX@XsX@X,X&X<X3X3X3X3X3X3X3X3X3X1X3X2X3X3X3X3X3X3X3X=X&XA.6 6 6 5 a N.N.$.F / T T T T T T T T T ",
"T T T T Y T L ;.zXlXtX2X<X*X&XiXnXxXnXjX1X].=X3X3X3X3X3X3X3X3X3X3X3X3X3X3X3X3X3X3X1X=X*Xi.6 6 0 7 a m.m.$.@.( T T T T T T T T T ",
"T T W <.T H.eX0X2X<X3X3X2X<X5X<X1X1X<X1X<X<X1X3X3X3X3X3X3X3X3X3X3X3X3X3X3X2X2X3X2X3X=X&Xi.6 6 6 7 a N.m.$.G ( T T T T T T T T T ",
"T T T U L J.MXgX].].<X3X1X3X3X&X].].].].<X3X3X3X3X3X3X3X3X3X3X3X3X3X3X3X3X3X3X3X3X3X5X;X#X6 6 t 5 a N.B.$.F ( ` T T T T T T I ` ",
"T U ' 9X9X9X2X<X<X<X2X2X2X3X3X<X1X1X1X1X3X3X3X1X>X3X3X1X3X3X3X3X3X3X3X3X2X3X2X3X>X8Xt.l l 6 8 6 6 a N.N.$.F ( T T T T T T T T T ",
"T U :.mXMXrX].-X8X8XrXrX8X3X3X3X1X3X3X3X3X3X3X3X3X3X3X3X3X3X3X1X2X3X3X3X3X2X1X3X<XrXc $ 3 3 7 6 5 a N.N.$.F ( T T T T T T T U T ",
"T U ` x.x.D.Z.D.v v v c y.=X=X5X<X1X<X<X3X3X3X3X3X3X3X3X3X3X3X3X3X3X3X3X3X3X3X3X2X4XS.u.u.u.p.l 7 a B.m.$.F / T T T T T T T T T ",
"T T T L P >.B.v.3 4 4 ; s 6X*X4XrXrXrX8X3X>X3X3X1X3X3X3X3X2X3X2X3X3X3X3X3X3X3X3X3X2X-X*X*X*X6Xk $ u B.N.&.F / T T T T T T T T T ",
"T T ` >.>.e.x j 0 0 t 0 a 0.8.0.0.0.0.0.:X8X3X3X3X3X3X3X3X3X3X3X3X1X3X3X3X3X3X3X<X1X<X=X=X$X$Xu.y.w.*.*.( ) _ T T T T T T T T T ",
"T P ' V.C.z ; ; 3 3 3 5 3 3 $ 3 4 3 3 3 OX4X2X3X3X3X3X3X3X3X3X3X3X3X3X3X3X3X3X3X3X3X3X3X8X;X6X7XaXK.J G E U T T T T T T T T T T ",
"T U W >.r.| J | q.q.q.q.q.q.q.a q t e q OX4X2X3X3X3X3X3X3X3X3X3X3X3X3X3X3X3X3X<X%X=X=X=XOXm m m m e.[ { _ T T T T T T T T T T T ",
"T T U U L T 1.4.0X0X0X0X0XL.0Xa ; 4 7 3 OXqX3X3X3X3X3X3X3X3X3X3X3X3X3X3X3X3X3X1X8X6X;X6XOX  . .   % { F E U T T T T T T T T T T ",
"T T T W T Y P ' H.x.G.w.D.K.:Xt.v 8.m 8.:X4X3X3X3X3X3X3X3X1X3X3X3X3X3X=X<X=X=X:X0.0.0.q.m # # & # = #.{ E T T T T T T T T T T T ",
"T T T T T T T U P L p ; s 7X*X4XrXqX8XrX3X3X3X3X3X3X3X3X3X3X3X3X8X1X1X;X*X*X6X#XO O . O O @ @ @ O = #.#.` U T T T Y T T T T T T ",
"T T T T T T T ` :.;.d ; s p.u.#X<X<X<X5X3X3X3X3X1X2X3X3X3X3X3X3X<X=X,Xt.t.t.M.0.& @ # # @ @ @ @ + % 1 2 G ` ` T T T T T T T T T ",
"T T T T T T P ..V.V.x 5 6 4 3 i.7X&X*X&X2X3X3X3X3X3X3X3X3X2X3X3X=X6X#X@ . O . . # @ @ @ @ @ # @ # @ O O 1 { ^ T T T T T T T T T ",
"T T T T T _ ..-.q.q.u 5 8 8 6 t.i.i.p.i.%X5X<X3X3X3X2X3X3X3X<X<XOXp.C.& # @ @ # @ @ @ @ @ # @ @ @ @ @ # 1 { / U T T T T T T T T ",
"T T T T T r.V.v.7 6 8 6 6 6 6 5 7 7 5 4 K.;X=X8X3X2X3X3X3X3X&X7Xm   O O @ @ @ # @ @ # @ @ @ @ @ @ @ @ # 1 #.) U T T T T T T T T ",
"T T T <.U *.v.n 6 0 6 6 6 0 6 0 e e 0 8 p.i.OX1X3X3X3X<X<X<XS.OXx . @ # @ @ @ @ @ @ @ @ @ @ @ @ @ @ @ o 2 A F _ E T T T T T T T ",
"T T T T <.p 5 0 6 6 0 6 6 6 6 6 q 6 7 7 6 ; v 8X2X3X<X=X*X$X* + @ @ @ @ @ @ @ @ @ @ @ @ # @ @ @ @ @ @ @ @ O , / G ` U T T T T T ",
"T T T Y T p 5 6 0 6 6 6 8 i i 9 9 r a y s 0 8.8X2X3XqX:XOXS.* # @ @ @ @ @ @ # @ @ @ @ @ @ @ @ @ @ @ @ o @ # = A +.~ W W T T T T ",
"T T T T <.p q 6 5 6 6 5 i Y W W T ,.-X#X&X$X$X$X$XiXmXF.. * @ @ @ @ @ @ @ @ @ @ @ @ @ @ @ @ @ @ @ @ @ @ @ + @ & + A -.) T U T T ",
"T T T T <.p e 9 9 9 8 9 p W P T P 4.%X].&X=X=X=X=XfXxXN   @ @ @ @ @ @ @ @ @ @ @ @ @ @ @ # @ @ @ @ @ @ @ @ @ @ @ @ 1 +.G Y Y T <.",
"T T T T U E E Y E E Y Y Y T T T T <.Q ` eXhXjXjXcX> & * @ @ @ @ @ @ @ @ @ @ @ @ @ # @ @ @ @ @ @ @ @ @ @ @ @ + & # & # ,  ./ E U ",
"T T T T T T U T <.T T T T T T T T W Y Y eXhXcXcXcX> O @ @ @ # # @ @ @ @ @ @ @ @ @ @ @ @ @ @ @ @ @ @ @ # # @ @ @ @ @ O , #.=.` <.",
"T T T T T T T T Y T T T T T T Y <.H - % @XmXF.* > @ # @ + + # + # + @ # @ # @ # @ # @ # @ @ # # @ @ @ @ + # @ + # @ # & % % F  .",
"T T T T T T T T T T T T T T T T <.J o O @XNXF.  + + + & & @ @ & + & + + & @ & + & + & @ + + & + @ @ @ @ + + @ & & @ @ + # + +.#.",
"T T T T T T T T T T T T T T T T T Y B B ..;.-.! ! ! R R ! R ! ! ! ! ! B ! R ! ! R B ! ! ! ! ! ! R R B R ! ! ! ! R B B B R ! ~ _ ",
"T T T T T T T T T T Y U T T T T T T <.<.U P P T U T U 1.<.<.U U U <.<.<.<.U U T <.<.1.U U <.<.U U T <.<.<.<.T T U <.<.<.<.<.U U ",
"T T T T T T T T T I j.^.l.^ / E T T T T W U a.Q.W.W.!.d.D  .U._.d.H  .Y I d.).l./ S h.).l.H S k._.l.S / E U O.).W.o.G ~ T T T T ",
"T T T T T T T T T I E. XY.A { _ T T T T U L s. X{.{..XU.@.} /.|.7.Z G ` L l. X`.[ Z P.|.).[ F Y. XT.Z A ~ P a.|.}.X.F ^ U T T T ",
"T Y U T T T T T T I I.|.Y.F { _ U T T Y j.Y.k.6.6.s.a...] ( /.[.).U.l.Q I j.{.).[ D P.{.Q.[ F E.[./.P.Y.O.L a.}.(.X.F ) T T T T ",
"T T T T T T T T W I I.{.W.A #.` T T T T _. Xk.V @.I U U U Q /.[.[.|.'._ L j.|.).{ D P.{.Q.F Z U.[.(.|..X3.L O.{.(.X.F ) T T T T ",
"T T T T T T T T T U E.{.W.F { _ <.T T Y !.[.^.k.R. .( Q T Q /.[.U.5.7.l.z.Q.{.).{ D R.|.Q.F F U.{.).5.5.k.z.E.(.(.X.@.) <.T T T ",
"T T T Y T T T T W I U.{.W.D { _ T T T Y !.[.[.|.XXX.+./ U Q /.{.7.V } XX|.[.[._.[ D P.{.Q.[ F U.{.Y.Z Z _.oX{.(.}.X.F ) T T T T ",
"T T T T T T T T T I I.{.Y.[ -._ T T T Y ~.[.Q.5.g...~ _ U Q /.{.g.D  .f.f.W.{.).[ D P.{.Q.F D U.{.Y.F { s.f.l.[.(.X.@.) T T T T ",
"T T T T T T T T W I W. XQ.V D ] I U U T _.oXl.2 Z K P U U W /.{.g.Z { Y L j.|.).[ D P.{.Q.[ F U.|.Y.D { ] L 3.}.(.X.@.~ T T T T ",
"T T T T T T T T U Y s.l.j.7.g.f.d.s.~ ) d.l.h.g.h.d.h.3.! ( /.{.g.D  .W I j.{.).[ D P.{.T.[ @.U.{.Y.A { Q P a.}.(.X.F ^ T T T T ",
"T T T T T T T T T T T I O..X|.|.oX).A #.] I s.oX{.|.oXU.@.} /. Xk.D @.W I l. X`.[ Z U. X).[ D Y. XT.A { _ P a..X}.X.@./ T T T T ",
"T T T T T T T T T T U U O.l.l.l.l.f.) ( Q U 3.l.l.l.l.s.) ( l.l.6.) ( T I s.I.j.( ) d.I.h.) ~ d.I.h.~ ( E P 3.l.l.../ _ T T T T ",
"T T T T T T T T T T T T U I I P I U U T T T U I I I I T T T P I U <.T <.T U I I T U I I P T U I I U T T T T U I I T <.T T T T T "
};
