/* XPM */
static char *_614433744870[] = {
/* columns rows colors chars-per-pixel */
"64 64 171 2 ",
"   c #CD0707",
".  c #C70909",
"X  c #CA0909",
"o  c #D20606",
"O  c #DC0404",
"+  c #D40B0B",
"@  c #DD0B0B",
"#  c #C91212",
"$  c #CB1D1D",
"%  c #DC1313",
"&  c #D31B1B",
"*  c #E30404",
"=  c #EC0404",
"-  c #E20909",
";  c #ED0B0B",
":  c #F40202",
">  c #FB0101",
",  c #F20A0A",
"<  c #FB0C0C",
"1  c #E41313",
"2  c #EA1212",
"3  c #E41919",
"4  c #EC1B1B",
"5  c #F41313",
"6  c #F91414",
"7  c #F71818",
"8  c #F81B1B",
"9  c #CC2222",
"0  c #CB2A2A",
"q  c #D52525",
"w  c #DC2626",
"e  c #D52D2D",
"r  c #DB2A2A",
"t  c #D63131",
"y  c #DD3232",
"u  c #E02626",
"i  c #EF2121",
"p  c #E32F2F",
"a  c #E33333",
"s  c #ED3333",
"d  c #E23B3B",
"f  c #EF3939",
"g  c #F13434",
"h  c #CE4545",
"j  c #DE4343",
"k  c #D74848",
"l  c #DB4848",
"z  c #CA5555",
"x  c #C85D5D",
"c  c #D35555",
"v  c #D85555",
"b  c #D25C5C",
"n  c #E54A4A",
"m  c #E94C4C",
"M  c #C86969",
"N  c #D06262",
"B  c #D06F6F",
"V  c #DA6868",
"C  c #CA7575",
"Z  c #C97979",
"A  c #D47575",
"S  c #DD7575",
"D  c #D47C7C",
"F  c #DD7B7B",
"G  c #E16262",
"H  c #EB6767",
"J  c #E46B6B",
"K  c #EB6C6C",
"L  c #E27575",
"P  c #EB7070",
"I  c #E37979",
"U  c #054C8D",
"Y  c #084B89",
"T  c #1D578E",
"R  c #1E588E",
"E  c #034E94",
"W  c #084F90",
"Q  c #014F99",
"!  c #075196",
"~  c #095195",
"^  c #05539B",
"/  c #09539A",
"(  c #1F5B95",
")  c #1E5E9A",
"_  c #1F619F",
"`  c #366D9F",
"'  c #0156A4",
"]  c #0558A5",
"[  c #0057A8",
"{  c #0258A8",
"}  c #1F62A0",
"|  c #2062A0",
" . c #3771A6",
".. c #3871A6",
"X. c #3874AC",
"o. c #3A79B3",
"O. c #CA8383",
"+. c #CB8D8D",
"@. c #D28585",
"#. c #DB8282",
"$. c #D58A8A",
"%. c #DB8D8D",
"&. c #C99595",
"*. c #CB9999",
"=. c #D29E9E",
"-. c #DB9A9A",
";. c #E48484",
":. c #EB8383",
">. c #E08F8F",
",. c #EC8A8A",
"<. c #E19191",
"1. c #E19B9B",
"2. c #CAA6A6",
"3. c #CCAAAA",
"4. c #D0A2A2",
"5. c #DAA3A3",
"6. c #D1ABAB",
"7. c #DDAEAE",
"8. c #CAB3B3",
"9. c #CABCBC",
"0. c #D0B7B7",
"q. c #DBB3B3",
"w. c #D2BABA",
"e. c #D8BFBF",
"r. c #E2A6A6",
"t. c #E3AAAA",
"y. c #EDADAD",
"u. c #E4B1B1",
"i. c #EDB2B2",
"p. c #E4BABA",
"a. c #EABFBF",
"s. c #F3BFBF",
"d. c #B9C4CF",
"f. c #CCC2C2",
"g. c #CBCCCC",
"h. c #D3C4C4",
"j. c #DCC4C4",
"k. c #D0CECE",
"l. c #DACECE",
"z. c #C1CCD7",
"x. c #C2CDD8",
"c. c #CFD0D0",
"v. c #D2D2D2",
"b. c #DBD4D4",
"n. c #DCDCDC",
"m. c #E0C6C6",
"M. c #ECC0C0",
"N. c #E1C9C9",
"B. c #F3C2C2",
"V. c #F3C9C9",
"C. c #E1D3D3",
"Z. c #EED5D5",
"A. c #E2DEDE",
"S. c #EBDCDC",
"D. c #C9D6E1",
"F. c #CFDCE8",
"G. c #D1DDE9",
"H. c #DDE2E2",
"J. c #E3E4E4",
"K. c #EBE5E5",
"L. c #ECEBEB",
"P. c #F4E6E6",
"I. c #F9E4E4",
"U. c #F4ECEC",
"Y. c #F8ECEC",
"T. c #EFF0EF",
"R. c #F5F4F4",
"E. c #FAF5F5",
"W. c #F7FCFC",
"Q. c #FBFBFB",
"!. c None",
/* pixels */
"!.E ' ' E ' E ' ' E ' ' E [ E [ ' E ' { E ' ' Q ' E ' ' E ' ' E ' E ' ' E [ ' E ' E ' ' E ' ' E ' ^ ^ ' E ' ' E ' ' E [ W ' ' E ",
"~ Y ! ! Y ^ Y ! ! Y ! ! Y ! Y / / Y ! ! U ! E W ~ Y ! ! Y ! ! Y ! Y / ! Y ! ! Y ! Y / ! U ! ! Y ^ ! W ! Y E ! Y ^ ! U ! Y ! ! Y ",
"' U ' ' W ^ U ' ' W ' ' E ^ U ^ ' U ^ ' W ^ ^ E ' U ' ' W ' ' W ^ E ^ ' U ' ' W ^ E ^ ' W ' ^ E ^ Q E ' W ' ' W ' ' U ^ U ' ' U ",
"[ E { ' E ' E [ [ E ' [ E [ E { [ E [ ' E [ ' ^ ' E [ [ E [ ' E [ E [ [ E [ [ E [ E { { E [ { E [ ' ^ ' E [ ' W [ [ E ' E [ { E ",
"^ W ' ^ W ^ W ' ' W ' ^ W ' U ^ ' U ^ ' U ' ! ~ ^ W ' ' U ^ ' W ^ U ' ^ U ' ' U ^ U ' ' U ' ' U ' ! E ' U ' ' U ' ^ U ' U ' ^ U ",
"! Y ! / Y ^ Y ! ! Y ! / Y ! U ! / Y / / Y / E U ! Y ! / Y / ! Y ! Y / / Y ! / Y ! Y ~ ! Y / ~ Y / E W ! Y ~ / Y / / Y ! Y ! ! Y ",
"[ W [ [ E ] W ' ] W ] ' E ' E ] ' E ] ' W ' ' ! ' E ] ' E ] ] W [ W ' [ W ] ' W ' E ] ] W [ ] ! ' ^ ^ ' W ] ' E ] ' E ' W ' [ W ",
"} R _ _ R _ T } } T _ _ ( ) T } _ R _ } R } ) ( } R } _ R _ _ R ) ( } ) ( _ _ R _ R _ _ R _ | R } ) ( _ R | _ R _ _ R ) ( } | R ",
"H.d.F.H.d.G.d.G.G.d.H.G.d.F.d.H.G.d.G.H.d.G.D.x.F.d.G.H.d.H.G.d.F.d.H.F.d.G.G.d.H.d.H.G.d.G.G.d.G.v.z.G.d.G.G.d.G.G.d.G.d.H.F.d.",
"W.J.W.Q.J.Q.J.Q.Q.J.Q.Q.J.W.J.W.Q.J.Q.Q.J.W.W.T.W.J.W.Q.H.Q.Q.J.W.J.Q.W.J.Q.Q.J.W.J.W.W.J.Q.Q.J.W.W.L.W.J.Q.Q.J.Q.Q.J.Q.J.Q.Q.H.",
"M.6.M.M.6.M.6.a.M.6.M.M.6.M.6.M.a.6.B.a.6.M.p.q.M.6.M.M.6.M.a.6.M.6.M.M.6.a.a.6.M.6.M.M.6.a.a.6.M.p.q.a.6.B.a.6.M.M.6.M.6.M.M.3.",
"m h m m h m h m m h m m h m h m m h m m h m l l m h m m h m m h m h m m h m m h m h m m h m m h m n k m h m m h m m h m h m m h ",
"> O > > * > * > > * > > O > O > > * > > * > : = > * > > O > > * > O > > * > > * > O > > * > > * > : = > O > > * > > * > * > > * ",
"> O > > O > O : > O > : % 6 % 6 6 % 6 6 % 6 5 1 7 % 6 6 % 6 6 1 6 % 6 6 @ > > - > O : > O > > O > = * : O > > O > : O > O > > O ",
"- . - - X O X - - X - 1 Z r.&.t.r.&.r.r.&.r.5.=.t.&.t.t.&.t.7.&.r.&.r.r.z - - X O X - - . - - . - O + - . - - . - - X O . - - . ",
": O > : O : O : : O : < 5.U.b.R.R.b.R.R.b.R.K.A.R.b.U.E.b.E.U.b.R.b.R.Y.A : : O : O : > O > : O : = * : O > : O : > O : O : > o ",
"=   = = o * o = * o = ; 2.K.g.L.L.c.L.L.c.L.J.n.L.g.L.L.v.L.L.c.K.v.L.K.A = =   =   = =   = = o = * O * o = =   = =   * o = =   ",
"= o = = o = & :.,.#.:.,.e.L.v.L.L.v.L.T.v.L.J.n.L.v.L.L.v.L.L.v.L.v.L.L.6.,.:.D :.A ; , o = = + = * O = + = = o = = + = o = = o ",
"> - > > - : u E.W.H.Q.W.H.W.n.Q.Q.n.W.W.H.W.T.L.W.H.W.Q.H.Q.Q.n.Q.n.Q.W.H.W.W.J.Q.b.6 : O > > O > : = : O > > - > > - > O > > O ",
": O : : O : w U.R.n.E.R.n.R.n.R.E.n.E.R.n.R.L.C.P.l.E.E.n.R.E.n.R.n.R.R.n.E.R.n.R.l.< : O : : O : = - : O : : O : : O : O : : O ",
"- X - - . - 0 n.J.g.J.A.g.H.g.J.J.g.J.J.g.A.b.@.;.+.J.J.g.H.J.g.H.g.H.J.g.J.J.g.H.9.3 - . - - X - O + - X - - . - - X - . - - . ",
"> O > > O > w Y.Q.n.Q.Q.n.E.n.Q.E.n.Q.W.n.Q.P.3 6 l E.E.n.Q.E.H.E.n.Q.W.n.Q.E.n.E.l.< > O > > O > : * > O > > O > > O : O > > O ",
"> * > > O > u E.Q.J.Q.Q.n.Q.J.Q.Q.J.Q.Q.J.W.P.; > y E.Q.A.W.Q.J.Q.J.Q.Q.J.W.Q.J.W.C.< > O : > * > : = > * > > * > > * > * > > O ",
"- X - ; z J B K.J.g.L.L.g.J.c.J.J.g.K.J.+.;.F + ; 9 I :.3.J.J.g.J.g.J.K.g.K.J.g.J.f.P J d - - X - O + - X - = X - -   - X = -   ",
": o : ; 6.Z.h.L.U.v.T.T.v.L.v.T.L.v.R.K.c i 3 O = + 7 i @.L.U.v.L.v.R.T.v.T.T.v.L.v.S.Z.D , : o : * O = o : = o : = o = o = : o ",
": O : < j.R.n.W.W.n.W.W.H.W.H.W.W.H.W.E.l : : * : O : : F Q.W.H.W.H.W.W.H.W.W.n.R.n.W.R.%.: : O : : * : O : > O : > O : O > : O ",
"= o = ; w.L.v.L.L.w.i.i.4.i.=.i.i.4.i.y.t ; * O = o = ; b i.i.=.i.4.i.i.=.i.i.k.L.v.L.L.$.; = o = * O = o = = o = = o = o = = o ",
", + = 5 e.T.v.U.U.D 2 , + , + , , + ; , + = = @ = o , , + , , + ; + , , + , 5 6.U.v.R.U.$.5 , o , = O , + = , + , , o , o , = o ",
"> O > < j.E.n.Q.E.L < > - > O > > O > > O > : - > O > > O > > O > O > > O : < u.E.n.W.E.%.< > O > : * : O > > * > > O : * > > O ",
"- . - 1 8.J.g.J.A.O.a p # - X - - X - - . - O o - . - - . - - . - . - - $ p d 2.A.g.J.A.O.- - . - O o - X - - . - - X - . - - . ",
": O : , e.R.v.R.R.h.V.s.r , o : : O : : O : = O : O : : O : : O = O : < v B.V.l.R.v.R.U.%., : O : = - : o : : O : : o : O : : o ",
"> * > < N.Q.J.W.Q.J.Q.E.y > * > > - > > * > : = > * > > * > > O > * > > J E.W.J.Q.J.Q.Q.>.< > O > : = > * > > * > > * > * > > * ",
", o : 2 e.L.v.T.R.v.U.L.c f r , : o , = o = = O = o : : o : : o = + g f D U.L.v.L.v.R.U.$.; : o : = O = o : = o , : o = o : = o ",
"-   - 2 8.J.g.K.J.g.J.K.2.t.+.1 -   - =   - O + -   - - X - -   - $ r.y.8.J.L.g.J.g.J.J.@.- -   - O + -   - -   * -   - o - = . ",
"> * > < N.Q.J.W.Q.J.Q.Q.H.Q.N.6 > * > > * > : * > * > > * > > * > u E.Q.J.Q.Q.J.Q.n.Q.Q.%.< > * > : = > * > > * > > * > * > > O ",
"> O > < j.E.n.W.W.n.Q.Q.b.Y.m.5 > O > > O > : ; < - > > O > > O > w I.Y.n.Q.Q.n.Q.n.Q.E.<.< > O > : * > O > > O > > O > O > > O ",
"- X - 1 8.n.g.J.J.g.J.A.z a 0 - - . - - . - % 4.q.Z - - X - - X - X a a C A.J.g.n.g.J.A.O.- - . - O + - . - - . - - . @ X - - X ",
": O : < e.R.b.R.E.n.R.U.t : O : : O : : o : ; C.R.5.< : o : : O , O : , V T.E.b.R.n.R.R.%.< : O : = O : O : : O : : O : O : : o ",
"= o = ; 0.L.g.L.L.k.K.Z.t -   ; = o = = + ; 1 l.K.=.3 ; X ; = o - o = ; N S.J.k.K.c.L.K.+.; = X = O O ;   = = + = = + =   = = o ",
"= X = 1 w.J.v.L.L.*.K H $ = o = ; o = ; z :.;.v.L.0.,.:.t ; = o = o = - t K K w.L.k.L.K.+.; =   = - o = o = = X = = X = o = =   ",
"> * > < N.Q.J.Q.E.S > > * > * > > O > < 1.E.W.L.W.J.W.E.G > > * > * > > * > < t.Q.J.Q.Q.%.< > * > : = > * > > * > > * > * > > * ",
"> O : < q.Y.b.E.E.F 8 6 % 6 @ 5 < % 5 7 -.E.U.J.R.n.Q.E.V 6 5 % 6 + 5 5 % 5 7 7.R.n.I.I.#.< > O > = * : O > : O : > O : O : : O ",
"- . - - x S C A.A.*.I I M S M L L M L L 3.J.n.g.H.f.J.A.&.I L M L M L L M L I 8.H.f.I L h - - . - O + - . - - . - - . - X - - . ",
": O > : @ 6 y U.E.n.Y.Y.l.U.l.Y.U.b.Y.Y.n.E.T.J.W.n.E.Q.b.Y.Y.b.U.N.Y.Y.b.Y.U.n.E.l.8 < @ : > O > = * : O : > O > : O : O : > O ",
"> * > > * > u E.Q.J.Q.Q.J.Q.J.Q.Q.J.Q.Q.n.Q.R.L.Q.J.Q.Q.J.W.Q.J.Q.J.Q.Q.J.Q.Q.J.Q.b.< > * > > O > : = > * > > * > > * > * > > O ",
"= o = -   - q S.J.c.L.J.c.J.c.J.L.v.L.J.c.L.J.v.J.c.L.L.g.L.L.g.L.g.L.J.c.L.J.g.K.f.2 -   = =   = O + = X = = X = =   -   = =   ",
"= + = = o = q K.L.c.L.L.v.L.c.L.L.c.L.L.k.L.J.n.L.c.L.L.v.L.L.c.L.v.L.L.v.L.L.c.L.f.2 = o = = + = - O = o = = o = =   = o = = o ",
": o : : O , q U.W.n.R.R.n.R.n.R.R.n.R.R.n.R.L.H.T.n.R.R.n.E.E.n.R.v.E.R.n.R.W.n.R.l.< : O : : O : = O : O : : O : : O : O : : o ",
"*   - - X - $ t.u.*.u.u.f.J.g.J.J.g.J.J.g.J.n.v.J.g.J.J.g.J.J.g.J.g.J.K.8.u.u.*.t.&.- -   - -   * O o - X - *   - = . -   - *   ",
"> O > > O > O < < @ < 6 u.E.n.E.Q.n.E.Q.n.Q.U.L.Q.n.Q.Q.n.E.Q.n.E.n.Q.E.I 5 < @ < - < > O > > O > : - > O > > O : > O > O > > O ",
"> * > > O > * > > * > < t.E.H.Q.Q.A.Q.Q.A.Q.T.K.Q.n.Q.Q.A.Q.Q.A.Q.n.Q.E.I < > * > O > > * > > * > : = > * > > * > > O > O > > O ",
"- . = -   -   - - X - - Z r.*.t.t.*.t.t.*.t.5.=.t.*.t.t.*.t.t.*.t.*.t.r.z - -   -   - -   - -   - O o -   - - X - = X - X = - . ",
": o : , o = o : : o : , q s r s g e g g e g s r g e g g e g g e s e s g & : , o = o : = o : = o = = O = o : : o = : o : o : : o ",
"> * > > * > * > > * > > * > O > > * > > * > : = > * > > * > > * > * > > * > > * > * > > * > > * > : = > * > > * > > * > * > > O ",
"g t g g e g e g g t g g t g e g g t g g e g s y g e g g e g g t g e g g t g g t g t g g t g g t g s a g e g g t g g t g t g g e ",
"p.2.p.p.2.p.2.p.p.2.p.p.2.p.2.p.p.2.p.p.2.p.q.6.p.2.p.p.2.p.p.2.p.2.p.p.2.p.p.2.p.2.p.p.2.p.p.2.p.q.6.p.2.p.p.2.p.p.2.p.2.p.p.2.",
"E.G.E.E.n.E.G.E.E.n.W.Q.n.E.G.E.E.G.E.E.G.E.U.K.E.G.Q.E.A.W.E.n.E.n.Q.E.G.E.Q.n.R.n.E.Q.G.E.Q.n.E.Y.J.E.G.W.E.n.Q.E.n.E.G.E.Q.n.",
"K.g.J.J.g.J.k.J.J.g.J.J.g.J.g.K.J.g.K.J.g.K.G.v.J.g.J.J.g.J.J.g.J.g.J.J.g.K.J.g.J.g.J.J.g.K.J.g.J.G.v.J.k.J.J.g.J.J.g.J.g.K.J.g.",
"o.` o.o.` o.` o.o.` o.o.` o.` o.o.` o.o.` o.X. .o.` o.o.` o.o.` o.` o.o.` o.o.` o.` o.o.` o.o.` o.X. .o.` o.o.` o.o.` o.` o.o.` ",
"' E ' ' E ' E [ [ E ' ' E ' E ' ' E [ ' E ' ^ Q ' E ' [ E [ ' E ' E ' ' E ' ' E ' E ] [ E ' ' E ' ' Q ' W ' ' W [ ' E ' E ' ' E ",
"^ U ^ ^ U ^ U ^ ^ U ' ^ U ^ U ^ ] U ^ ^ Y ' Q W Q U ^ ] U ^ ^ U ^ U ' ^ U ' ^ U Q U ] Q W ^ ^ U ^ ! W ' U ^ ^ U ^ ^ U ^ Y ^ ^ U ",
"^ U ^ ^ Y Q Y / ! Y / Q Y Q U ^ Q Y / / Y ^ W U ^ Y / / U ! ^ U ! Y ! ^ U ! ! Y Q Y / / U ^ ^ Y ! Q U / U ^ ^ U ^ / U Q Y Q ^ Y ",
"[ E { { E [ E [ [ E [ [ E ' E ] [ E [ [ E [ ' Q [ E ' [ E [ [ E [ E [ ' E [ [ E [ E ' [ E ' [ E ' ' Q ' E [ [ E [ [ E [ E [ [ E ",
"[ E [ [ E [ E [ [ E [ [ E ' E [ ' E [ [ E ' ' Q ' E [ ' E [ [ E [ E [ [ E [ [ E ' E { [ E [ [ E ' ' ! [ E ' [ E [ [ E ' E [ ' E "
};
